<?xml version="1.0" encoding="UTF-8"?>
<svg id="Ebene_1" xmlns="http://www.w3.org/2000/svg" viewBox="0 0 160 80">
  <path id="path3084" d="M28.0534374,43.9107479c2.1238718,0,2.357715-2.0370883,2.357715-3.7270203s-.8172447-2.9628161-2.504771-2.9628161c-1.6296669,0-2.4445022,1.3958274-2.4445022,2.9989759,0,1.7164541.5231327,3.6956794,2.5915582,3.6956794M36.028205,46.5673938c0,2.9989759-.7859038,7.2177917-7.8590525,7.2177917-3.579968,0-7.3624382-.9643007-7.8855673-5.0336511h5.6941947c.0925331.1827707.1997618.3577283.3206304.5231364.3495583.5231364.9643007,1.1065342,1.6875263,1.1065342,1.8635102,0,2.2709278-2.2130684,2.2709278-3.4642492v-1.3982331h-.0578594c-.90426,1.3409734-2.4282542,2.1302136-4.0452413,2.094944-4.452659,0-6.4608157-3.3171969-6.4608157-7.3624382,0-3.9295226,2.242-7.2177917,6.5500124-7.2177917,1.6875263,0,3.2882654.6701887,3.9584541,2.2106627h.0578594v-1.8321729h5.7616955v13.1506484l.0072356.0048189Z"/>
  <path id="path3086" d="M38.2726143,27.7346014h5.7641086v4.0452413h-5.7641086v-4.0452413ZM38.2726143,33.4095134h5.7641086v15.105772h-5.7641086v-15.105772Z"/>
  <path id="path3088" d="M46.2955962,33.4095134h5.5591932v1.9286015h.0578557c1.0776064-1.5139519,2.6204861-2.2998593,4.9203454-2.2998593,2.707277,0,5.1807034,1.6585985,5.1807034,5.1228477v10.366233h-5.7641012v-7.928959c0-1.745382-.2025023-2.9700481-1.8924417-2.9700481-.9884097,0-2.2998593.4942012-2.2998593,2.912185v7.9747639h-5.7616955v-15.1057647"/>
  <path id="path3090" d="M73.4695915,41.7410712c-.7242703.3316035-1.4859657.5744443-2.2685184.7232256-1.2825218.2916989-1.9502974.612333-1.9502974,1.6296706,0,.6991166.7569796,1.3982331,1.803245,1.3982331,1.3090365,0,2.3287872-.7859075,2.4107519-2.357715v-1.3934143M79.0143208,45.1378197c0,1.1354621.0578557,2.4107519.6991166,3.3750526h-5.8846462c-.1533794-.4595349-.2219984-.9431051-.2025023-1.4271683h-.0578557c-1.222253,1.3982331-2.9989759,1.803245-4.8600766,1.803245-2.9097793,0-5.32535-1.3958274-5.32535-4.5804285,0-4.7732857,5.588121-4.5973056,8.5268281-5.1517755.7859075-.1446466,1.5718076-.3784898,1.5718076-1.3379643,0-1.0197507-.9643007-1.3982331-1.8924417-1.3982331-1.7743098,0-2.1238718.9016188-2.1527996,1.5428797h-5.3687417c.1759875-4.2477436,4.192301-4.9468602,7.7722616-4.9468602,7.2177917,0,7.159936,2.9965628,7.159936,5.9087552v6.2004541l.0144639.0120435Z"/>
  <path id="path3092" d="M84.4674403,33.3444257h3.0857594v1.5573436h-3.0857594v10.2312315c0,1.2053759.1759875,1.9117245,1.499488,1.9985154.5308098-.000103,1.0612002-.0298769,1.5886846-.0891966v1.5886846c-.5592962,0-1.0872514.0578557-1.6465403.0578557-2.4686075,0-3.3220158-.8220673-3.2906748-3.4112124v-10.366233h-2.6397762v-1.5573436h2.651827v-4.5563195h1.8514557v4.5563195"/>
  <path id="path3094" d="M89.638506,33.3444257h1.7044033v3.5582721h.0578557c.9426049-2.4396797,2.9989759-3.881312,5.7327676-3.7631801v1.8514483c-3.3509436-.1759875-5.643571,2.2926274-5.643571,5.4386556v8.0856638h-1.8514557v-15.1708597"/>
  <path id="path3096" d="M98.9271326,27.5176352h1.8514557v2.9700481h-1.8514557v-2.9700481ZM98.9271326,33.3371938h1.8514557v15.1684466h-1.8514557v-15.1684466Z"/>
  <path id="path3098" d="M114.2980814,38.1080664c-.4990274-2.2636995-1.8803835-3.6450556-4.2911354-3.6450556-3.555859,0-5.3205311,3.2328191-5.3205311,6.4656383s1.7646721,6.468044,5.3205311,6.468044c2.2950405,0,4.175424-1.7936,4.4092599-4.3200706h1.8514557c-.5014405,3.6450556-2.8808514,5.8798273-6.2679548,5.8798273-4.6455235,0-7.1719868-3.6739835-7.1719868-8.025395s2.5288763-8.025395,7.1719868-8.025395c3.2328118,0,5.732775,1.7333312,6.1450041,5.2048124h-1.8514557"/>
  <path id="path3100" d="M119.5848585,40.928649c0,3.2328191,1.7646721,6.468044,5.3205311,6.468044s5.3205311-3.2328191,5.3205311-6.468044-1.7646721-6.4656383-5.3205311-6.4656383-5.3205311,3.2328191-5.3205311,6.4656383M132.0773764,40.928649c0,4.3393533-2.5288763,8.025395-7.1719868,8.025395s-7.1743999-3.6739835-7.1743999-8.025395,2.5288763-8.025395,7.1743999-8.025395,7.1719868,3.6763966,7.1719868,8.025395Z"/>
  <path id="path3102" d="M136.6047755,33.3444257h3.0857594v1.5573436h-3.0857594v10.2312315c0,1.2053759.1759802,1.9117245,1.4994806,1.9985154.5308098-.000103,1.0612076-.0298769,1.5886919-.0891966v1.5886846c-.5592962,0-1.0896645.0578557-1.6465476.0578557-2.4710207,0-3.3220231-.8220673-3.2930806-3.4112124v-10.366233h-2.651827v-1.5573436h2.651827v-4.5563195h1.8514557v4.5563195"/>
</svg>